<svg width="163" height="40" viewBox="0 0 163 40" fill="none" xmlns="http://www.w3.org/2000/svg">
<path d="M95.4571 14.512C97.0891 14.512 98.4011 15.016 99.3931 16.024C100.401 17.016 100.905 18.408 100.905 20.2V28H97.5451V20.656C97.5451 19.616 97.2811 18.824 96.7531 18.28C96.2251 17.72 95.5051 17.44 94.5931 17.44C93.6811 17.44 92.9531 17.72 92.4091 18.28C91.8811 18.824 91.6171 19.616 91.6171 20.656V28H88.2571V20.656C88.2571 19.616 87.9931 18.824 87.4651 18.28C86.9371 17.72 86.2171 17.44 85.3051 17.44C84.3771 17.44 83.6411 17.72 83.0971 18.28C82.5691 18.824 82.3051 19.616 82.3051 20.656V28H78.9451V14.704H82.3051V16.312C82.7371 15.752 83.2891 15.312 83.9611 14.992C84.6491 14.672 85.4011 14.512 86.2171 14.512C87.2571 14.512 88.1851 14.736 89.0011 15.184C89.8171 15.616 90.4491 16.24 90.8971 17.056C91.3291 16.288 91.9531 15.672 92.7691 15.208C93.6011 14.744 94.4971 14.512 95.4571 14.512Z" fill="white"/>
<path d="M109.998 28.216C108.718 28.216 107.566 27.936 106.542 27.376C105.518 26.8 104.71 25.992 104.118 24.952C103.542 23.912 103.254 22.712 103.254 21.352C103.254 19.992 103.55 18.792 104.142 17.752C104.75 16.712 105.574 15.912 106.614 15.352C107.654 14.776 108.814 14.488 110.094 14.488C111.374 14.488 112.534 14.776 113.574 15.352C114.614 15.912 115.43 16.712 116.022 17.752C116.63 18.792 116.934 19.992 116.934 21.352C116.934 22.712 116.622 23.912 115.998 24.952C115.39 25.992 114.558 26.8 113.502 27.376C112.462 27.936 111.294 28.216 109.998 28.216ZM109.998 25.288C110.606 25.288 111.174 25.144 111.702 24.856C112.246 24.552 112.678 24.104 112.998 23.512C113.318 22.92 113.478 22.2 113.478 21.352C113.478 20.088 113.142 19.12 112.47 18.448C111.814 17.76 111.006 17.416 110.046 17.416C109.086 17.416 108.278 17.76 107.622 18.448C106.982 19.12 106.662 20.088 106.662 21.352C106.662 22.616 106.974 23.592 107.598 24.28C108.238 24.952 109.038 25.288 109.998 25.288Z" fill="white"/>
<path d="M126.766 14.512C128.35 14.512 129.63 15.016 130.606 16.024C131.582 17.016 132.07 18.408 132.07 20.2V28H128.71V20.656C128.71 19.6 128.446 18.792 127.918 18.232C127.39 17.656 126.67 17.368 125.758 17.368C124.83 17.368 124.094 17.656 123.55 18.232C123.022 18.792 122.758 19.6 122.758 20.656V28H119.398V14.704H122.758V16.36C123.206 15.784 123.774 15.336 124.462 15.016C125.166 14.68 125.934 14.512 126.766 14.512Z" fill="white"/>
<path d="M147.625 21.064C147.625 21.544 147.593 21.976 147.529 22.36H137.809C137.889 23.32 138.225 24.072 138.817 24.616C139.409 25.16 140.137 25.432 141.001 25.432C142.249 25.432 143.137 24.896 143.665 23.824H147.289C146.905 25.104 146.169 26.16 145.081 26.992C143.993 27.808 142.657 28.216 141.073 28.216C139.793 28.216 138.641 27.936 137.617 27.376C136.609 26.8 135.817 25.992 135.241 24.952C134.681 23.912 134.401 22.712 134.401 21.352C134.401 19.976 134.681 18.768 135.241 17.728C135.801 16.688 136.585 15.888 137.593 15.328C138.601 14.768 139.761 14.488 141.073 14.488C142.337 14.488 143.465 14.76 144.457 15.304C145.465 15.848 146.241 16.624 146.785 17.632C147.345 18.624 147.625 19.768 147.625 21.064ZM144.145 20.104C144.129 19.24 143.817 18.552 143.209 18.04C142.601 17.512 141.857 17.248 140.977 17.248C140.145 17.248 139.441 17.504 138.865 18.016C138.305 18.512 137.961 19.208 137.833 20.104H144.145Z" fill="white"/>
<path d="M162.798 14.704L154.566 34.288H150.99L153.87 27.664L148.542 14.704H152.31L155.742 23.992L159.222 14.704H162.798Z" fill="white"/>
<path d="M63.2418 14.6006C64.2255 14.6006 65.0902 14.7989 65.836 15.1956C66.5817 15.5764 67.1688 16.0762 67.5972 16.695V14.8148H70.953V28.0952C70.953 29.3169 70.707 30.4038 70.2152 31.3558C69.7233 32.3237 68.9855 33.0853 68.0018 33.6406C67.018 34.2118 65.828 34.4974 64.4318 34.4974C62.5595 34.4974 61.0204 34.0611 59.8146 33.1884C58.6246 32.3157 57.9502 31.1257 57.7916 29.6184H61.0998C61.2743 30.2213 61.6472 30.6973 62.2184 31.0464C62.8054 31.4113 63.5115 31.5938 64.3366 31.5938C65.3044 31.5938 66.0898 31.3003 66.6928 30.7132C67.2957 30.142 67.5972 29.2693 67.5972 28.0952V26.0484C67.1688 26.6672 66.5738 27.1829 65.8122 27.5954C65.0664 28.0079 64.2096 28.2142 63.2418 28.2142C62.1311 28.2142 61.1156 27.9286 60.1954 27.3574C59.2751 26.7862 58.5452 25.9849 58.0058 24.9536C57.4822 23.9064 57.2204 22.7085 57.2204 21.3598C57.2204 20.027 57.4822 18.8449 58.0058 17.8136C58.5452 16.7823 59.2672 15.9889 60.1716 15.4336C61.0918 14.8783 62.1152 14.6006 63.2418 14.6006ZM67.5972 21.4074C67.5972 20.5982 67.4385 19.908 67.1212 19.3368C66.8038 18.7497 66.3754 18.3055 65.836 18.004C65.2965 17.6867 64.7174 17.528 64.0986 17.528C63.4798 17.528 62.9086 17.6787 62.385 17.9802C61.8614 18.2817 61.433 18.7259 61.0998 19.313C60.7824 19.8842 60.6238 20.5665 60.6238 21.3598C60.6238 22.1531 60.7824 22.8513 61.0998 23.4542C61.433 24.0413 61.8614 24.4935 62.385 24.8108C62.9244 25.1281 63.4956 25.2868 64.0986 25.2868C64.7174 25.2868 65.2965 25.1361 65.836 24.8346C66.3754 24.5173 66.8038 24.073 67.1212 23.5018C67.4385 22.9147 67.5972 22.2166 67.5972 21.4074Z" fill="white"/>
<path d="M34.1422 5.85781C30.3647 2.08031 25.3422 0 20 0C14.6578 0 9.63531 2.08031 5.85781 5.85781C2.08031 9.63531 0 14.6578 0 20C0 25.3422 2.08039 30.3646 5.85781 34.1422C9.63523 37.9198 14.6578 40 20 40C25.3422 40 30.3647 37.9197 34.1422 34.1422C37.9197 30.3647 40 25.3422 40 20C40 14.6578 37.9196 9.63539 34.1422 5.85781Z" fill="#33CC95"/>
<g clip-path="url(#clip0_101_4)">
<path d="M20.5714 8V33.1429" stroke="white" stroke-width="2" stroke-linecap="round" stroke-linejoin="round"/>
<path d="M26.2857 12.5714H17.7143C16.6534 12.5714 15.636 12.9928 14.8859 13.743C14.1357 14.4931 13.7143 15.5105 13.7143 16.5714C13.7143 17.6323 14.1357 18.6497 14.8859 19.3998C15.636 20.15 16.6534 20.5714 17.7143 20.5714H23.4286C24.4894 20.5714 25.5068 20.9928 26.257 21.743C27.0071 22.4931 27.4286 23.5105 27.4286 24.5714C27.4286 25.6323 27.0071 26.6497 26.257 27.3998C25.5068 28.15 24.4894 28.5714 23.4286 28.5714H13.7143" stroke="white" stroke-width="2" stroke-linecap="round" stroke-linejoin="round"/>
</g>
<defs>
<clipPath id="clip0_101_4">
<rect width="27.4286" height="27.4286" fill="white" transform="translate(6.85714 6.85712)"/>
</clipPath>
</defs>
</svg>
